<svg width="28" height="26" viewBox="0 0 28 26" fill="none" xmlns="http://www.w3.org/2000/svg">
<path d="M13.3117 8.26147H13.2237C13.1861 8.71085 13.0938 9.15443 12.9487 9.58314L11.231 14.7333H15.2706L13.5754 9.63513C13.4383 9.18726 13.3499 8.7269 13.3117 8.26147Z" fill="#2C3E50"/>
<path d="M24.3463 0H2.70514C1.98769 0 1.29963 0.273926 0.792318 0.76152C0.285006 1.24911 0 1.91044 0 2.6V23.4C0 24.0896 0.285006 24.7509 0.792318 25.2385C1.29963 25.7261 1.98769 26 2.70514 26H24.3463C25.0637 26 25.7518 25.7261 26.2591 25.2385C26.7664 24.7509 27.0514 24.0896 27.0514 23.4V2.6C27.0514 1.91044 26.7664 1.24911 26.2591 0.76152C25.7518 0.273926 25.0637 0 24.3463 0ZM17.2069 20.7242L16.0798 17.3485H10.4666L9.35527 20.7242H5.50721L11.2534 5.55751H15.4689L21.0821 20.7242H17.2069Z" fill="#2C3E50"/>
</svg>
